<svg width="32" height="32" viewBox="0 0 32 32" fill="none" xmlns="http://www.w3.org/2000/svg">
<path fill-rule="evenodd" clip-rule="evenodd" d="M14.8551 13.69C14.7601 13.44 12.5401 9.31499 7.60505 6.63999C7.53955 6.60444 7.46662 6.56419 7.387 6.52025C6.15069 5.83797 3.29894 4.26418 1.53505 5.53249C0.117553 6.39999 1.29255 8.37749 2.19255 9.49749C3.06255 10.58 3.57755 11.3925 3.87005 12.76C4.16505 14.1375 4.69005 16 6.25505 16.4C6.87125 16.5572 7.5055 16.4255 8.11945 16.298C8.22785 16.2755 8.33562 16.2531 8.44255 16.2325C8.56943 16.2078 8.71633 16.1735 8.87002 16.1377C9.41585 16.0104 10.0472 15.8633 10.1701 16.0525C10.3153 16.2877 9.5716 16.6827 8.6144 17.1911C7.23151 17.9256 5.40291 18.8968 5.16505 19.965C4.76851 21.7453 5.5646 22.5991 6.37214 23.4652L6.37216 23.4652C6.54212 23.6475 6.71259 23.8304 6.87255 24.0225C7.24077 24.5213 7.36655 25.0036 7.47809 25.4313C7.62707 26.0026 7.75066 26.4766 8.39255 26.7625C9.85755 27.4125 11.6176 26.235 12.3501 25.0725C13.0648 23.936 13.3851 23.0583 13.7481 22.0637L13.7481 22.0637C13.9425 21.531 14.1491 20.9649 14.4351 20.3075C14.7101 19.675 15.2526 18.335 15.4576 17.675C15.5601 17.34 15.7001 16.8 15.6976 16.3625C15.6557 15.4957 15.2438 14.5734 14.9999 14.0271C14.9377 13.8879 14.8865 13.7732 14.8551 13.69ZM12.2302 11.2225C11.3977 10.2575 10.5227 9.48252 9.31272 8.85752C8.80522 8.59502 7.27772 8.80252 7.67022 9.89752C7.8409 10.3746 9.25473 11.2779 10.1685 11.8617L10.1686 11.8617C10.3657 11.9877 10.5396 12.0988 10.6727 12.1875C11.1903 12.5326 11.9434 13.1329 12.6346 13.684L12.6347 13.684C13.4958 14.3705 14.2609 14.9805 14.3552 14.925C14.8202 15 13.0677 12.1925 12.2302 11.2225ZM10.6377 13.31C9.90272 12.765 9.01772 12.1375 8.05522 12.19C7.38772 12.225 6.72022 12.7525 7.10022 13.46C7.58117 14.3557 8.92919 14.6757 9.84405 14.8929L9.89522 14.905C10.1689 14.9697 10.5061 15.056 10.8643 15.1478L10.8643 15.1478C12.0995 15.4642 13.5852 15.8448 13.5852 15.62C13.6302 15.4043 12.4196 14.5607 11.4585 13.891L11.4585 13.891C11.1388 13.6683 10.8468 13.4648 10.6377 13.31ZM7.09022 7.28752C6.37522 7.36752 5.50022 7.57252 5.24522 8.36502C5.07522 8.89502 5.31772 9.66752 5.94522 9.74752C6.39838 9.80416 6.57981 9.44108 6.75002 9.10043L6.75772 9.08502C6.90814 8.78245 7.13629 8.56358 7.36855 8.34075L7.36856 8.34075C7.47214 8.24138 7.57653 8.14123 7.67522 8.03252C8.17022 7.49002 7.61272 7.28752 7.09022 7.28752ZM2.44772 6.30502C2.93772 6.07502 3.31772 6.09502 3.93272 6.21002C4.21022 6.26252 4.99522 6.43252 5.07022 6.78002C5.11006 6.96361 4.8223 7.17841 4.59187 7.35041C4.4897 7.42668 4.3988 7.49453 4.35272 7.54752C4.13185 7.79963 4.00654 8.07762 3.87197 8.37617C3.85575 8.41215 3.8394 8.44844 3.82272 8.48502C3.57022 9.03752 2.64022 7.97502 2.54272 7.83002C2.41522 7.64252 2.12522 7.13252 2.14772 6.87502C2.16272 6.68252 2.27272 6.41002 2.44772 6.30502ZM5.38522 10.5425C5.54367 10.58 5.72102 10.6003 5.90255 10.6211C6.26521 10.6625 6.64449 10.7059 6.92272 10.8925C7.53522 11.3025 6.22522 11.98 5.88772 12.1075C4.55272 12.61 3.50272 10.355 3.92022 9.66252C4.11884 9.32457 4.41765 9.65451 4.73431 10.0042C4.95174 10.2443 5.1776 10.4937 5.38522 10.5425ZM5.09522 12.9925C5.32772 12.6525 6.45772 12.705 6.34022 13.4775C6.22772 14.2275 5.28272 14.69 5.00772 13.7825C4.92522 13.5125 4.93772 13.2325 5.09522 12.9925ZM5.92022 15.085C6.03272 14.63 7.59522 14.23 7.76272 15.1625C7.90022 15.9225 6.95522 15.82 6.39272 15.7125C6.02522 15.6425 5.83272 15.3925 5.92022 15.085ZM9.99524 19.3225C10.9002 18.4425 13.8702 16.77 13.5452 17.4525C12.9902 18.065 12.5577 18.745 12.1352 19.455C12.0645 19.5741 11.9938 19.6954 11.9224 19.8178C11.4694 20.5952 10.9903 21.4173 10.3077 21.9875C10.0727 22.185 9.75024 22.395 9.43024 22.3125C9.13024 22.235 8.97524 21.925 8.90774 21.6425C8.68024 20.6975 9.33024 19.97 9.99524 19.3225ZM8.03274 18.905C8.47524 17.435 12.6177 16.8375 11.9102 17.2175C11.1327 17.575 10.3777 17.9575 9.68274 18.4575C9.55598 18.549 9.42733 18.6564 9.2957 18.7664C8.999 19.0143 8.68716 19.2748 8.34774 19.3925C7.98524 19.52 7.95024 19.175 8.03274 18.905ZM12.37 20.9458C12.9299 20.1653 13.2043 19.7829 13.6602 18.9675C14.0827 18.375 13.5102 20.3775 13.2702 21.065C12.9977 21.8325 12.6277 22.5975 12.1527 23.265C11.8902 23.635 11.3027 23.77 11.3752 23.16C11.4652 22.3925 11.8627 21.65 12.3077 21.0325C12.3289 21.0031 12.3496 20.9742 12.37 20.9458ZM7.74524 20.2575C7.66524 19.2825 6.35024 19.5725 6.05024 20.0925C5.69524 20.6875 6.48524 21.355 6.72774 21.3875C7.37524 21.435 7.80274 20.97 7.74524 20.2575ZM7.67274 21.97C7.32524 21.9125 6.81024 21.9625 6.77524 22.2925C6.77524 22.67 7.16274 23.195 7.49774 23.1875C7.78524 23.1825 7.95274 22.8475 8.03274 22.5825C8.12274 22.29 7.98274 22.0225 7.67274 21.97ZM10.0952 23.3775C9.80274 22.825 8.83274 23.2025 8.57274 23.5075C8.55797 23.5259 8.54296 23.5445 8.52783 23.5632C8.26133 23.8927 7.95604 24.2702 8.19024 24.7125C8.38774 25.0875 8.63274 25.295 9.02774 25.375C9.43274 25.455 9.64274 25.32 9.75274 24.9275C9.78541 24.8094 9.84322 24.6689 9.90497 24.5189C10.0653 24.1295 10.2523 23.6753 10.0952 23.3775ZM10.5327 25.33C10.3952 25.065 10.4302 24.6675 10.6427 24.55C10.8877 24.455 11.2952 24.4375 11.4252 24.6825C11.5552 24.9275 11.3677 25.24 11.1702 25.3825C10.9827 25.5175 10.6602 25.5775 10.5327 25.33Z" fill="#002FA7"/>
<path fill-rule="evenodd" clip-rule="evenodd" d="M17.1448 13.69C17.2398 13.44 19.4598 9.31499 24.3948 6.63999C24.4603 6.60444 24.5332 6.5642 24.6128 6.52027L24.6128 6.52025C25.8491 5.83797 28.7009 4.26418 30.4648 5.53249C31.8823 6.39999 30.7098 8.37999 29.8073 9.49749C28.9373 10.58 28.4223 11.3925 28.1298 12.76C27.8348 14.1375 27.3098 16 25.7448 16.4C25.1286 16.5572 24.4943 16.4255 23.8804 16.298L23.8804 16.298C23.772 16.2755 23.6642 16.2531 23.5573 16.2325C23.4304 16.2078 23.2835 16.1735 23.1298 16.1377C22.584 16.0104 21.9527 15.8633 21.8298 16.0525C21.6846 16.2877 22.4282 16.6827 23.3854 17.1911C24.7683 17.9256 26.5969 18.8968 26.8348 19.965C27.2313 21.7453 26.4352 22.5991 25.6277 23.4652L25.6277 23.4652C25.4577 23.6475 25.2872 23.8304 25.1273 24.0225C24.7591 24.5213 24.6333 25.0036 24.5217 25.4313C24.3728 26.0026 24.2492 26.4766 23.6073 26.7625C22.1423 27.4125 20.3823 26.235 19.6498 25.0725C18.935 23.936 18.6147 23.0583 18.2517 22.0637C18.0574 21.531 17.8507 20.9649 17.5648 20.3075C17.2898 19.675 16.7473 18.335 16.5423 17.675C16.4398 17.34 16.2998 16.8 16.3023 16.3625C16.3441 15.4957 16.756 14.5734 17 14.0271L17 14.027C17.0621 13.8879 17.1133 13.7732 17.1448 13.69ZM19.7701 11.2225C20.6026 10.2575 21.4776 9.48252 22.6876 8.85752C23.1951 8.59502 24.7226 8.80252 24.3301 9.89752C24.1594 10.3746 22.7456 11.2779 21.8317 11.8617L21.8317 11.8617C21.6346 11.9877 21.4607 12.0988 21.3276 12.1875C20.81 12.5326 20.0569 13.133 19.3657 13.684L19.3656 13.684C18.5045 14.3705 17.7394 14.9805 17.6451 14.925C17.1801 15 18.9326 12.1925 19.7701 11.2225ZM21.3626 13.31C22.0976 12.765 22.9826 12.1375 23.9451 12.19C24.6126 12.225 25.2801 12.7525 24.9001 13.46C24.4191 14.3557 23.0711 14.6757 22.1563 14.8929L22.1051 14.905C21.8314 14.9697 21.4942 15.056 21.136 15.1478L21.136 15.1478C19.9008 15.4642 18.4151 15.8448 18.4151 15.62C18.3701 15.4043 19.5807 14.5607 20.5418 13.891L20.5419 13.891C20.8615 13.6683 21.1536 13.4648 21.3626 13.31ZM24.9101 7.28752C25.6251 7.36752 26.5001 7.57252 26.7551 8.36502C26.9251 8.89502 26.6826 9.66752 26.0551 9.74752C25.6019 9.80416 25.4205 9.44107 25.2503 9.10043L25.2426 9.08502C25.0922 8.78245 24.864 8.56358 24.6318 8.34075C24.5282 8.24139 24.4238 8.14123 24.3251 8.03252C23.8301 7.49002 24.3876 7.28752 24.9101 7.28752ZM29.5526 6.30502C29.0626 6.07502 28.6826 6.09502 28.0676 6.21002C27.7901 6.26252 27.0051 6.43252 26.9301 6.78002C26.8903 6.96361 27.178 7.17841 27.4084 7.35041C27.5106 7.42668 27.6015 7.49453 27.6476 7.54752C27.8685 7.79963 27.9938 8.07762 28.1283 8.37617C28.1446 8.41216 28.1609 8.44844 28.1776 8.48502C28.4301 9.03752 29.3601 7.97502 29.4576 7.83002C29.5851 7.64252 29.8751 7.13252 29.8526 6.87502C29.8376 6.68252 29.7276 6.41002 29.5526 6.30502ZM26.6151 10.5425C26.4566 10.58 26.2793 10.6003 26.0978 10.6211C25.7351 10.6625 25.3558 10.7059 25.0776 10.8925C24.4651 11.3025 25.7751 11.98 26.1126 12.1075C27.4476 12.61 28.4976 10.355 28.0801 9.66252C27.8815 9.32457 27.5827 9.65451 27.266 10.0042C27.0486 10.2443 26.8227 10.4937 26.6151 10.5425ZM26.9051 12.9925C26.6726 12.6525 25.5426 12.705 25.6601 13.4775C25.7726 14.2275 26.7176 14.69 26.9926 13.7825C27.0751 13.5125 27.0626 13.2325 26.9051 12.9925ZM26.0801 15.085C25.9676 14.63 24.4051 14.23 24.2376 15.1625C24.1001 15.9225 25.0451 15.82 25.6076 15.7125C25.9751 15.6425 26.1676 15.3925 26.0801 15.085ZM22.0051 19.3225C21.1001 18.4425 18.1301 16.77 18.4551 17.4525C19.0101 18.065 19.4426 18.745 19.8651 19.455C19.9358 19.5741 20.0065 19.6954 20.0779 19.8178C20.531 20.5952 21.0101 21.4173 21.6926 21.9875C21.9276 22.185 22.2501 22.395 22.5701 22.3125C22.8701 22.235 23.0251 21.925 23.0926 21.6425C23.3201 20.6975 22.6701 19.97 22.0051 19.3225ZM23.9676 18.905C23.5251 17.435 19.3826 16.8375 20.0901 17.2175C20.8676 17.575 21.6226 17.9575 22.3176 18.4575C22.4444 18.549 22.573 18.6564 22.7046 18.7664C23.0013 19.0143 23.3132 19.2748 23.6526 19.3925C24.0151 19.52 24.0501 19.175 23.9676 18.905ZM19.6304 20.9458C19.0704 20.1653 18.796 19.7829 18.3401 18.9675C17.9176 18.375 18.4901 20.3775 18.7301 21.065C19.0026 21.8325 19.3726 22.5975 19.8476 23.265C20.1101 23.635 20.6976 23.77 20.6251 23.16C20.5351 22.3925 20.1376 21.65 19.6926 21.0325C19.6715 21.0031 19.6507 20.9742 19.6304 20.9458ZM24.2551 20.2575C24.3351 19.2825 25.6501 19.5725 25.9501 20.0925C26.3051 20.6875 25.5151 21.355 25.2726 21.3875C24.6251 21.435 24.1976 20.97 24.2551 20.2575ZM24.3276 21.97C24.6751 21.9125 25.1901 21.9625 25.2251 22.2925C25.2251 22.67 24.8376 23.195 24.5026 23.1875C24.2151 23.1825 24.0476 22.8475 23.9676 22.5825C23.8776 22.29 24.0176 22.0225 24.3276 21.97ZM21.9051 23.3775C22.1976 22.825 23.1676 23.2025 23.4276 23.5075C23.4424 23.5259 23.4574 23.5445 23.4725 23.5632C23.739 23.8927 24.0443 24.2701 23.8101 24.7125C23.6126 25.0875 23.3676 25.295 22.9726 25.375C22.5676 25.455 22.3576 25.32 22.2476 24.9275C22.2149 24.8094 22.1571 24.6689 22.0954 24.5189C21.935 24.1295 21.7481 23.6753 21.9051 23.3775ZM21.4676 25.33C21.6051 25.065 21.5701 24.6675 21.3576 24.55C21.1126 24.455 20.7051 24.4375 20.5751 24.6825C20.4451 24.9275 20.6326 25.24 20.8301 25.3825C21.0176 25.5175 21.3401 25.5775 21.4676 25.33Z" fill="#002FA7"/>
<path d="M16.0001 13.835C16.4046 13.835 16.7326 13.5014 16.7326 13.09C16.7326 12.6785 16.4046 12.345 16.0001 12.345C15.5955 12.345 15.2676 12.6785 15.2676 13.09C15.2676 13.5014 15.5955 13.835 16.0001 13.835Z" fill="#002FA7"/>
<path d="M16.7326 15.6849C16.7326 18.3224 16.7326 23.0924 16.0001 23.0924C15.2676 23.0924 15.2676 18.3224 15.2676 15.6849C15.2676 13.0474 15.5951 13.5374 16.0001 13.5374C16.4051 13.5374 16.7326 13.0474 16.7326 15.6849Z" fill="#002FA7"/>
<path d="M15.8152 12.64C15.7727 12.4775 15.0877 8.68001 12.3952 6.94001C12.3852 6.93251 12.1327 6.76001 11.8377 6.76001C11.5477 6.76001 11.2402 7.05001 11.2402 7.34001C11.2402 7.63001 11.4752 7.86751 11.7677 7.86751C11.9552 7.86751 12.2202 7.61751 12.3902 7.76751C14.7127 9.26501 15.4602 12.62 15.4702 12.6575C15.4977 12.77 15.8502 12.775 15.8152 12.64ZM16.1852 12.64C16.2277 12.4775 16.9127 8.68001 19.6052 6.94001C19.6152 6.93251 19.8677 6.76001 20.1627 6.76001C20.4527 6.76001 20.7602 7.05001 20.7602 7.34001C20.7602 7.63001 20.5252 7.86751 20.2327 7.86751C20.0452 7.86751 19.7802 7.61751 19.6102 7.76751C17.2877 9.26501 16.5402 12.62 16.5302 12.6575C16.5027 12.77 16.1502 12.775 16.1852 12.64Z" fill="#002FA7"/>
</svg>
