<svg width="500" height="400" viewBox="0 0 500 400" fill="none" xmlns="http://www.w3.org/2000/svg">
<g style="mix-blend-mode:soft-light" opacity="0.7">
<path d="M-157.757 5.8252H-177.175V25.2427M-157.757 5.8252V25.2427M-157.757 5.8252H-138.34M-157.757 25.2427H-177.175M-157.757 25.2427V44.6602M-157.757 25.2427H-138.34M-177.175 25.2427V44.6602M-157.757 44.6602H-177.175M-157.757 44.6602V64.0776M-157.757 44.6602H-138.34M-177.175 44.6602V64.0776M-157.757 64.0776H-177.175M-157.757 64.0776V83.4951M-157.757 64.0776H-138.34M-177.175 64.0776V83.4951M-157.757 83.4951H-177.175M-157.757 83.4951V102.913M-157.757 83.4951H-138.34M-177.175 83.4951V102.913M-157.757 102.913H-177.175M-157.757 102.913V122.33M-157.757 102.913H-138.34M-177.175 102.913V122.33M-157.757 122.33H-177.175M-157.757 122.33V141.748M-157.757 122.33H-138.34M-177.175 122.33V141.748M-157.757 141.748H-177.175M-157.757 141.748V161.165M-157.757 141.748H-138.34M-177.175 141.748V161.165M-157.757 161.165H-177.175M-157.757 161.165V180.583M-157.757 161.165H-138.34M-177.175 161.165V180.583M-157.757 180.583H-177.175M-157.757 180.583V200M-157.757 180.583H-138.34M-177.175 180.583V200M-157.757 200H-177.175M-157.757 200V219.417M-157.757 200H-138.34M-177.175 200V219.417M-157.757 219.417H-177.175M-157.757 219.417V238.835M-157.757 219.417H-138.34M-177.175 219.417V238.835M-157.757 238.835H-177.175M-157.757 238.835V258.252M-157.757 238.835H-138.34M-177.175 238.835V258.252M-157.757 258.252H-177.175M-157.757 258.252V277.67M-157.757 258.252H-138.34M-177.175 258.252V277.67M-157.757 277.67H-177.175M-157.757 277.67V297.087M-157.757 277.67H-138.34M-177.175 277.67V297.087M-157.757 297.087H-177.175M-157.757 297.087V316.505M-157.757 297.087H-138.34M-177.175 297.087V316.505M-157.757 316.505H-177.175M-157.757 316.505V335.922M-157.757 316.505H-138.34M-177.175 316.505V335.922M-157.757 335.922H-177.175M-157.757 335.922V355.34M-157.757 335.922H-138.34M-177.175 335.922V355.34M-157.757 355.34H-177.175M-157.757 355.34V374.757M-157.757 355.34H-138.34M-177.175 355.34V374.757M-157.757 374.757H-177.175M-157.757 374.757V394.175M-157.757 374.757H-138.34M-177.175 374.757V394.175H-157.757M-157.757 394.175H-138.34M-138.34 5.8252V25.2427M-138.34 5.8252H-118.922M-138.34 25.2427V44.6602M-138.34 25.2427H-118.922M-138.34 44.6602V64.0776M-138.34 44.6602H-118.922M-138.34 64.0776V83.4951M-138.34 64.0776H-118.922M-138.34 83.4951V102.913M-138.34 83.4951H-118.922M-138.34 102.913V122.33M-138.34 102.913H-118.922M-138.34 122.33V141.748M-138.34 122.33H-118.922M-138.34 141.748V161.165M-138.34 141.748H-118.922M-138.34 161.165V180.583M-138.34 161.165H-118.922M-138.34 180.583V200M-138.34 180.583H-118.922M-138.34 200V219.417M-138.34 200H-118.922M-138.34 219.417V238.835M-138.34 219.417H-118.922M-138.34 238.835V258.252M-138.34 238.835H-118.922M-138.34 258.252V277.67M-138.34 258.252H-118.922M-138.34 277.67V297.087M-138.34 277.67H-118.922M-138.34 297.087V316.505M-138.34 297.087H-118.922M-138.34 316.505V335.922M-138.34 316.505H-118.922M-138.34 335.922V355.34M-138.34 335.922H-118.922M-138.34 355.34V374.757M-138.34 355.34H-118.922M-138.34 374.757V394.175M-138.34 374.757H-118.922M-138.34 394.175H-118.922M-118.922 5.8252V25.2427M-118.922 5.8252H-99.5049M-118.922 25.2427V44.6602M-118.922 25.2427H-99.5049M-118.922 44.6602V64.0776M-118.922 44.6602H-99.5049M-118.922 64.0776V83.4951M-118.922 64.0776H-99.5049M-118.922 83.4951V102.913M-118.922 83.4951H-99.5049M-118.922 102.913V122.33M-118.922 102.913H-99.5049M-118.922 122.33V141.748M-118.922 122.33H-99.5049M-118.922 141.748V161.165M-118.922 141.748H-99.5049M-118.922 161.165V180.583M-118.922 161.165H-99.5049M-118.922 180.583V200M-118.922 180.583H-99.5049M-118.922 200V219.417M-118.922 200H-99.5049M-118.922 219.417V238.835M-118.922 219.417H-99.5049M-118.922 238.835V258.252M-118.922 238.835H-99.5049M-118.922 258.252V277.67M-118.922 258.252H-99.5049M-118.922 277.67V297.087M-118.922 277.67H-99.5049M-118.922 297.087V316.505M-118.922 297.087H-99.5049M-118.922 316.505V335.922M-118.922 316.505H-99.5049M-118.922 335.922V355.34M-118.922 335.922H-99.5049M-118.922 355.34V374.757M-118.922 355.34H-99.5049M-118.922 374.757V394.175M-118.922 374.757H-99.5049M-118.922 394.175H-99.5049M-99.5049 5.8252V25.2427M-99.5049 5.8252H-80.0874M-99.5049 25.2427V44.6602M-99.5049 25.2427H-80.0874M-99.5049 44.6602V64.0776M-99.5049 44.6602H-80.0874M-99.5049 64.0776V83.4951M-99.5049 64.0776H-80.0874M-99.5049 83.4951V102.913M-99.5049 83.4951H-80.0874M-99.5049 102.913V122.33M-99.5049 102.913H-80.0874M-99.5049 122.33V141.748M-99.5049 122.33H-80.0874M-99.5049 141.748V161.165M-99.5049 141.748H-80.0874M-99.5049 161.165V180.583M-99.5049 161.165H-80.0874M-99.5049 180.583V200M-99.5049 180.583H-80.0874M-99.5049 200V219.417M-99.5049 200H-80.0874M-99.5049 219.417V238.835M-99.5049 219.417H-80.0874M-99.5049 238.835V258.252M-99.5049 238.835H-80.0874M-99.5049 258.252V277.67M-99.5049 258.252H-80.0874M-99.5049 277.67V297.087M-99.5049 277.67H-80.0874M-99.5049 297.087V316.505M-99.5049 297.087H-80.0874M-99.5049 316.505V335.922M-99.5049 316.505H-80.0874M-99.5049 335.922V355.34M-99.5049 335.922H-80.0874M-99.5049 355.34V374.757M-99.5049 355.34H-80.0874M-99.5049 374.757V394.175M-99.5049 374.757H-80.0874M-99.5049 394.175H-80.0874M-80.0874 5.8252V25.2427M-80.0874 5.8252H-60.6699M-80.0874 25.2427V44.6602M-80.0874 25.2427H-60.6699M-80.0874 44.6602V64.0776M-80.0874 44.6602H-60.6699M-80.0874 64.0776V83.4951M-80.0874 64.0776H-60.6699M-80.0874 83.4951V102.913M-80.0874 83.4951H-60.6699M-80.0874 102.913V122.33M-80.0874 102.913H-60.6699M-80.0874 122.33V141.748M-80.0874 122.33H-60.6699M-80.0874 141.748V161.165M-80.0874 141.748H-60.6699M-80.0874 161.165V180.583M-80.0874 161.165H-60.6699M-80.0874 180.583V200M-80.0874 180.583H-60.6699M-80.0874 200V219.417M-80.0874 200H-60.6699M-80.0874 219.417V238.835M-80.0874 219.417H-60.6699M-80.0874 238.835V258.252M-80.0874 238.835H-60.6699M-80.0874 258.252V277.67M-80.0874 258.252H-60.6699M-80.0874 277.67V297.087M-80.0874 277.67H-60.6699M-80.0874 297.087V316.505M-80.0874 297.087H-60.6699M-80.0874 316.505V335.922M-80.0874 316.505H-60.6699M-80.0874 335.922V355.34M-80.0874 335.922H-60.6699M-80.0874 355.34V374.757M-80.0874 355.34H-60.6699M-80.0874 374.757V394.175M-80.0874 374.757H-60.6699M-80.0874 394.175H-60.6699M-60.6699 5.8252V25.2427M-60.6699 5.8252H-41.2524M-60.6699 25.2427V44.6602M-60.6699 25.2427H-41.2524M-60.6699 44.6602V64.0776M-60.6699 44.6602H-41.2524M-60.6699 64.0776V83.4951M-60.6699 64.0776H-41.2524M-60.6699 83.4951V102.913M-60.6699 83.4951H-41.2524M-60.6699 102.913V122.33M-60.6699 102.913H-41.2524M-60.6699 122.33V141.748M-60.6699 122.33H-41.2524M-60.6699 141.748V161.165M-60.6699 141.748H-41.2524M-60.6699 161.165V180.583M-60.6699 161.165H-41.2524M-60.6699 180.583V200M-60.6699 180.583H-41.2524M-60.6699 200V219.417M-60.6699 200H-41.2524M-60.6699 219.417V238.835M-60.6699 219.417H-41.2524M-60.6699 238.835V258.252M-60.6699 238.835H-41.2524M-60.6699 258.252V277.67M-60.6699 258.252H-41.2524M-60.6699 277.67V297.087M-60.6699 277.67H-41.2524M-60.6699 297.087V316.505M-60.6699 297.087H-41.2524M-60.6699 316.505V335.922M-60.6699 316.505H-41.2524M-60.6699 335.922V355.34M-60.6699 335.922H-41.2524M-60.6699 355.34V374.757M-60.6699 355.34H-41.2524M-60.6699 374.757V394.175M-60.6699 374.757H-41.2524M-60.6699 394.175H-41.2524M-41.2524 5.8252V25.2427M-41.2524 5.8252H-21.835M-41.2524 25.2427V44.6602M-41.2524 25.2427H-21.835M-41.2524 44.6602V64.0776M-41.2524 44.6602H-21.835M-41.2524 64.0776V83.4951M-41.2524 64.0776H-21.835M-41.2524 83.4951V102.913M-41.2524 83.4951H-21.835M-41.2524 102.913V122.33M-41.2524 102.913H-21.835M-41.2524 122.33V141.748M-41.2524 122.33H-21.835M-41.2524 141.748V161.165M-41.2524 141.748H-21.835M-41.2524 161.165V180.583M-41.2524 161.165H-21.835M-41.2524 180.583V200M-41.2524 180.583H-21.835M-41.2524 200V219.417M-41.2524 200H-21.835M-41.2524 219.417V238.835M-41.2524 219.417H-21.835M-41.2524 238.835V258.252M-41.2524 238.835H-21.835M-41.2524 258.252V277.67M-41.2524 258.252H-21.835M-41.2524 277.67V297.087M-41.2524 277.67H-21.835M-41.2524 297.087V316.505M-41.2524 297.087H-21.835M-41.2524 316.505V335.922M-41.2524 316.505H-21.835M-41.2524 335.922V355.34M-41.2524 335.922H-21.835M-41.2524 355.34V374.757M-41.2524 355.34H-21.835M-41.2524 374.757V394.175M-41.2524 374.757H-21.835M-41.2524 394.175H-21.835M-21.835 5.8252V25.2427M-21.835 5.8252H-2.41748M-21.835 25.2427V44.6602M-21.835 25.2427H-2.41748M-21.835 44.6602V64.0776M-21.835 44.6602H-2.41748M-21.835 64.0776V83.4951M-21.835 64.0776H-2.41748M-21.835 83.4951V102.913M-21.835 83.4951H-2.41748M-21.835 102.913V122.33M-21.835 102.913H-2.41748M-21.835 122.33V141.748M-21.835 122.33H-2.41748M-21.835 141.748V161.165M-21.835 141.748H-2.41748M-21.835 161.165V180.583M-21.835 161.165H-2.41748M-21.835 180.583V200M-21.835 180.583H-2.41748M-21.835 200V219.417M-21.835 200H-2.41748M-21.835 219.417V238.835M-21.835 219.417H-2.41748M-21.835 238.835V258.252M-21.835 238.835H-2.41748M-21.835 258.252V277.67M-21.835 258.252H-2.41748M-21.835 277.67V297.087M-21.835 277.67H-2.41748M-21.835 297.087V316.505M-21.835 297.087H-2.41748M-21.835 316.505V335.922M-21.835 316.505H-2.41748M-21.835 335.922V355.34M-21.835 335.922H-2.41748M-21.835 355.34V374.757M-21.835 355.34H-2.41748M-21.835 374.757V394.175M-21.835 374.757H-2.41748M-21.835 394.175H-2.41748M-2.41748 5.8252V25.2427M-2.41748 5.8252H17M-2.41748 25.2427V44.6602M-2.41748 25.2427H17M-2.41748 44.6602V64.0776M-2.41748 44.6602H17M-2.41748 64.0776V83.4951M-2.41748 64.0776H17M-2.41748 83.4951V102.913M-2.41748 83.4951H17M-2.41748 102.913V122.33M-2.41748 102.913H17M-2.41748 122.33V141.748M-2.41748 122.33H17M-2.41748 141.748V161.165M-2.41748 141.748H17M-2.41748 161.165V180.583M-2.41748 161.165H17M-2.41748 180.583V200M-2.41748 180.583H17M-2.41748 200V219.417M-2.41748 200H17M-2.41748 219.417V238.835M-2.41748 219.417H17M-2.41748 238.835V258.252M-2.41748 238.835H17M-2.41748 258.252V277.67M-2.41748 258.252H17M-2.41748 277.67V297.087M-2.41748 277.67H17M-2.41748 297.087V316.505M-2.41748 297.087H17M-2.41748 316.505V335.922M-2.41748 316.505H17M-2.41748 335.922V355.34M-2.41748 335.922H17M-2.41748 355.34V374.757M-2.41748 355.34H17M-2.41748 374.757V394.175M-2.41748 374.757H17M-2.41748 394.175H17M17 5.8252V25.2427M17 5.8252H36.4175M17 25.2427V44.6602M17 25.2427H36.4175M17 44.6602V64.0776M17 44.6602H36.4175M17 64.0776V83.4951M17 64.0776H36.4175M17 83.4951V102.913M17 83.4951H36.4175M17 102.913V122.33M17 102.913H36.4175M17 122.33V141.748M17 122.33H36.4175M17 141.748V161.165M17 141.748H36.4175M17 161.165V180.583M17 161.165H36.4175M17 180.583V200M17 180.583H36.4175M17 200V219.417M17 200H36.4175M17 219.417V238.835M17 219.417H36.4175M17 238.835V258.252M17 238.835H36.4175M17 258.252V277.67M17 258.252H36.4175M17 277.67V297.087M17 277.67H36.4175M17 297.087V316.505M17 297.087H36.4175M17 316.505V335.922M17 316.505H36.4175M17 335.922V355.34M17 335.922H36.4175M17 355.34V374.757M17 355.34H36.4175M17 374.757V394.175M17 374.757H36.4175M17 394.175H36.4175M36.4175 5.8252V25.2427M36.4175 5.8252H55.835M36.4175 25.2427V44.6602M36.4175 25.2427H55.835M36.4175 44.6602V64.0776M36.4175 44.6602H55.835M36.4175 64.0776V83.4951M36.4175 64.0776H55.835M36.4175 83.4951V102.913M36.4175 83.4951H55.835M36.4175 102.913V122.33M36.4175 102.913H55.835M36.4175 122.33V141.748M36.4175 122.33H55.835M36.4175 141.748V161.165M36.4175 141.748H55.835M36.4175 161.165V180.583M36.4175 161.165H55.835M36.4175 180.583V200M36.4175 180.583H55.835M36.4175 200V219.417M36.4175 200H55.835M36.4175 219.417V238.835M36.4175 219.417H55.835M36.4175 238.835V258.252M36.4175 238.835H55.835M36.4175 258.252V277.67M36.4175 258.252H55.835M36.4175 277.67V297.087M36.4175 277.67H55.835M36.4175 297.087V316.505M36.4175 297.087H55.835M36.4175 316.505V335.922M36.4175 316.505H55.835M36.4175 335.922V355.34M36.4175 335.922H55.835M36.4175 355.34V374.757M36.4175 355.34H55.835M36.4175 374.757V394.175M36.4175 374.757H55.835M36.4175 394.175H55.835M55.835 5.8252V25.2427M55.835 5.8252H75.2524M55.835 25.2427V44.6602M55.835 25.2427H75.2524M55.835 44.6602V64.0776M55.835 44.6602H75.2524M55.835 64.0776V83.4951M55.835 64.0776H75.2524M55.835 83.4951V102.913M55.835 83.4951H75.2524M55.835 102.913V122.33M55.835 102.913H75.2524M55.835 122.33V141.748M55.835 122.33H75.2524M55.835 141.748V161.165M55.835 141.748H75.2524M55.835 161.165V180.583M55.835 161.165H75.2524M55.835 180.583V200M55.835 180.583H75.2524M55.835 200V219.417M55.835 200H75.2524M55.835 219.417V238.835M55.835 219.417H75.2524M55.835 238.835V258.252M55.835 238.835H75.2524M55.835 258.252V277.67M55.835 258.252H75.2524M55.835 277.67V297.087M55.835 277.67H75.2524M55.835 297.087V316.505M55.835 297.087H75.2524M55.835 316.505V335.922M55.835 316.505H75.2524M55.835 335.922V355.34M55.835 335.922H75.2524M55.835 355.34V374.757M55.835 355.34H75.2524M55.835 374.757V394.175M55.835 374.757H75.2524M55.835 394.175H75.2524M75.2524 5.8252V25.2427M75.2524 5.8252H94.6699M75.2524 25.2427V44.6602M75.2524 25.2427H94.6699M75.2524 44.6602V64.0776M75.2524 44.6602H94.6699M75.2524 64.0776V83.4951M75.2524 64.0776H94.6699M75.2524 83.4951V102.913M75.2524 83.4951H94.6699M75.2524 102.913V122.33M75.2524 102.913H94.6699M75.2524 122.33V141.748M75.2524 122.33H94.6699M75.2524 141.748V161.165M75.2524 141.748H94.6699M75.2524 161.165V180.583M75.2524 161.165H94.6699M75.2524 180.583V200M75.2524 180.583H94.6699M75.2524 200V219.417M75.2524 200H94.6699M75.2524 219.417V238.835M75.2524 219.417H94.6699M75.2524 238.835V258.252M75.2524 238.835H94.6699M75.2524 258.252V277.67M75.2524 258.252H94.6699M75.2524 277.67V297.087M75.2524 277.67H94.6699M75.2524 297.087V316.505M75.2524 297.087H94.6699M75.2524 316.505V335.922M75.2524 316.505H94.6699M75.2524 335.922V355.34M75.2524 335.922H94.6699M75.2524 355.34V374.757M75.2524 355.34H94.6699M75.2524 374.757V394.175M75.2524 374.757H94.6699M75.2524 394.175H94.6699M94.6699 5.8252V25.2427M94.6699 5.8252H114.087M94.6699 25.2427V44.6602M94.6699 25.2427H114.087M94.6699 44.6602V64.0776M94.6699 44.6602H114.087M94.6699 64.0776V83.4951M94.6699 64.0776H114.087M94.6699 83.4951V102.913M94.6699 83.4951H114.087M94.6699 102.913V122.33M94.6699 102.913H114.087M94.6699 122.33V141.748M94.6699 122.33H114.087M94.6699 141.748V161.165M94.6699 141.748H114.087M94.6699 161.165V180.583M94.6699 161.165H114.087M94.6699 180.583V200M94.6699 180.583H114.087M94.6699 200V219.417M94.6699 200H114.087M94.6699 219.417V238.835M94.6699 219.417H114.087M94.6699 238.835V258.252M94.6699 238.835H114.087M94.6699 258.252V277.67M94.6699 258.252H114.087M94.6699 277.67V297.087M94.6699 277.67H114.087M94.6699 297.087V316.505M94.6699 297.087H114.087M94.6699 316.505V335.922M94.6699 316.505H114.087M94.6699 335.922V355.34M94.6699 335.922H114.087M94.6699 355.34V374.757M94.6699 355.34H114.087M94.6699 374.757V394.175M94.6699 374.757H114.087M94.6699 394.175H114.087M114.087 5.8252V25.2427M114.087 5.8252H133.505M114.087 25.2427V44.6602M114.087 25.2427H133.505M114.087 44.6602V64.0776M114.087 44.6602H133.505M114.087 64.0776V83.4951M114.087 64.0776H133.505M114.087 83.4951V102.913M114.087 83.4951H133.505M114.087 102.913V122.33M114.087 102.913H133.505M114.087 122.33V141.748M114.087 122.33H133.505M114.087 141.748V161.165M114.087 141.748H133.505M114.087 161.165V180.583M114.087 161.165H133.505M114.087 180.583V200M114.087 180.583H133.505M114.087 200V219.417M114.087 200H133.505M114.087 219.417V238.835M114.087 219.417H133.505M114.087 238.835V258.252M114.087 238.835H133.505M114.087 258.252V277.67M114.087 258.252H133.505M114.087 277.67V297.087M114.087 277.67H133.505M114.087 297.087V316.505M114.087 297.087H133.505M114.087 316.505V335.922M114.087 316.505H133.505M114.087 335.922V355.34M114.087 335.922H133.505M114.087 355.34V374.757M114.087 355.34H133.505M114.087 374.757V394.175M114.087 374.757H133.505M114.087 394.175H133.505M133.505 5.8252V25.2427M133.505 5.8252H152.922M133.505 25.2427V44.6602M133.505 25.2427H152.922M133.505 44.6602V64.0776M133.505 44.6602H152.922M133.505 64.0776V83.4951M133.505 64.0776H152.922M133.505 83.4951V102.913M133.505 83.4951H152.922M133.505 102.913V122.33M133.505 102.913H152.922M133.505 122.33V141.748M133.505 122.33H152.922M133.505 141.748V161.165M133.505 141.748H152.922M133.505 161.165V180.583M133.505 161.165H152.922M133.505 180.583V200M133.505 180.583H152.922M133.505 200V219.417M133.505 200H152.922M133.505 219.417V238.835M133.505 219.417H152.922M133.505 238.835V258.252M133.505 238.835H152.922M133.505 258.252V277.67M133.505 258.252H152.922M133.505 277.67V297.087M133.505 277.67H152.922M133.505 297.087V316.505M133.505 297.087H152.922M133.505 316.505V335.922M133.505 316.505H152.922M133.505 335.922V355.34M133.505 335.922H152.922M133.505 355.34V374.757M133.505 355.34H152.922M133.505 374.757V394.175M133.505 374.757H152.922M133.505 394.175H152.922M152.922 5.8252V25.2427M152.922 5.8252H172.34M152.922 25.2427V44.6602M152.922 25.2427H172.34M152.922 44.6602V64.0776M152.922 44.6602H172.34M152.922 64.0776V83.4951M152.922 64.0776H172.34M152.922 83.4951V102.913M152.922 83.4951H172.34M152.922 102.913V122.33M152.922 102.913H172.34M152.922 122.33V141.748M152.922 122.33H172.34M152.922 141.748V161.165M152.922 141.748H172.34M152.922 161.165V180.583M152.922 161.165H172.34M152.922 180.583V200M152.922 180.583H172.34M152.922 200V219.417M152.922 200H172.34M152.922 219.417V238.835M152.922 219.417H172.34M152.922 238.835V258.252M152.922 238.835H172.34M152.922 258.252V277.67M152.922 258.252H172.34M152.922 277.67V297.087M152.922 277.67H172.34M152.922 297.087V316.505M152.922 297.087H172.34M152.922 316.505V335.922M152.922 316.505H172.34M152.922 335.922V355.34M152.922 335.922H172.34M152.922 355.34V374.757M152.922 355.34H172.34M152.922 374.757V394.175M152.922 374.757H172.34M152.922 394.175H172.34M172.34 5.8252V25.2427M172.34 5.8252H191.757M172.34 25.2427V44.6602M172.34 25.2427H191.757M172.34 44.6602V64.0776M172.34 44.6602H191.757M172.34 64.0776V83.4951M172.34 64.0776H191.757M172.34 83.4951V102.913M172.34 83.4951H191.757M172.34 102.913V122.33M172.34 102.913H191.757M172.34 122.33V141.748M172.34 122.33H191.757M172.34 141.748V161.165M172.34 141.748H191.757M172.34 161.165V180.583M172.34 161.165H191.757M172.34 180.583V200M172.34 180.583H191.757M172.34 200V219.417M172.34 200H191.757M172.34 219.417V238.835M172.34 219.417H191.757M172.34 238.835V258.252M172.34 238.835H191.757M172.34 258.252V277.67M172.34 258.252H191.757M172.34 277.67V297.087M172.34 277.67H191.757M172.34 297.087V316.505M172.34 297.087H191.757M172.34 316.505V335.922M172.34 316.505H191.757M172.34 335.922V355.34M172.34 335.922H191.757M172.34 355.34V374.757M172.34 355.34H191.757M172.34 374.757V394.175M172.34 374.757H191.757M172.34 394.175H191.757M191.757 5.8252V25.2427M191.757 5.8252H211.175M191.757 25.2427V44.6602M191.757 25.2427H211.175M191.757 44.6602V64.0776M191.757 44.6602H211.175M191.757 64.0776V83.4951M191.757 64.0776H211.175M191.757 83.4951V102.913M191.757 83.4951H211.175M191.757 102.913V122.33M191.757 102.913H211.175M191.757 122.33V141.748M191.757 122.33H211.175M191.757 141.748V161.165M191.757 141.748H211.175M191.757 161.165V180.583M191.757 161.165H211.175M191.757 180.583V200M191.757 180.583H211.175M191.757 200V219.417M191.757 200H211.175M191.757 219.417V238.835M191.757 219.417H211.175M191.757 238.835V258.252M191.757 238.835H211.175M191.757 258.252V277.67M191.757 258.252H211.175M191.757 277.67V297.087M191.757 277.67H211.175M191.757 297.087V316.505M191.757 297.087H211.175M191.757 316.505V335.922M191.757 316.505H211.175M191.757 335.922V355.34M191.757 335.922H211.175M191.757 355.34V374.757M191.757 355.34H211.175M191.757 374.757V394.175M191.757 374.757H211.175M191.757 394.175H211.175M211.175 5.8252V25.2427M211.175 5.8252H230.592M211.175 25.2427V44.6602M211.175 25.2427H230.592M211.175 44.6602V64.0776M211.175 44.6602H230.592M211.175 64.0776V83.4951M211.175 64.0776H230.592M211.175 83.4951V102.913M211.175 83.4951H230.592M211.175 102.913V122.33M211.175 102.913H230.592M211.175 122.33V141.748M211.175 122.33H230.592M211.175 141.748V161.165M211.175 141.748H230.592M211.175 161.165V180.583M211.175 161.165H230.592M211.175 180.583V200M211.175 180.583H230.592M211.175 200V219.417M211.175 200H230.592M211.175 219.417V238.835M211.175 219.417H230.592M211.175 238.835V258.252M211.175 238.835H230.592M211.175 258.252V277.67M211.175 258.252H230.592M211.175 277.67V297.087M211.175 277.67H230.592M211.175 297.087V316.505M211.175 297.087H230.592M211.175 316.505V335.922M211.175 316.505H230.592M211.175 335.922V355.34M211.175 335.922H230.592M211.175 355.34V374.757M211.175 355.34H230.592M211.175 374.757V394.175M211.175 374.757H230.592M211.175 394.175H230.592M230.592 5.8252V25.2427M230.592 5.8252H250.01M230.592 25.2427V44.6602M230.592 25.2427H250.01M230.592 44.6602V64.0776M230.592 44.6602H250.01M230.592 64.0776V83.4951M230.592 64.0776H250.01M230.592 83.4951V102.913M230.592 83.4951H250.01M230.592 102.913V122.33M230.592 102.913H250.01M230.592 122.33V141.748M230.592 122.33H250.01M230.592 141.748V161.165M230.592 141.748H250.01M230.592 161.165V180.583M230.592 161.165H250.01M230.592 180.583V200M230.592 180.583H250.01M230.592 200V219.417M230.592 200H250.01M230.592 219.417V238.835M230.592 219.417H250.01M230.592 238.835V258.252M230.592 238.835H250.01M230.592 258.252V277.67M230.592 258.252H250.01M230.592 277.67V297.087M230.592 277.67H250.01M230.592 297.087V316.505M230.592 297.087H250.01M230.592 316.505V335.922M230.592 316.505H250.01M230.592 335.922V355.34M230.592 335.922H250.01M230.592 355.34V374.757M230.592 355.34H250.01M230.592 374.757V394.175M230.592 374.757H250.01M230.592 394.175H250.01M250.01 5.8252V25.2427M250.01 5.8252H269.427M250.01 25.2427V44.6602M250.01 25.2427H269.427M250.01 44.6602V64.0776M250.01 44.6602H269.427M250.01 64.0776V83.4951M250.01 64.0776H269.427M250.01 83.4951V102.913M250.01 83.4951H269.427M250.01 102.913V122.33M250.01 102.913H269.427M250.01 122.33V141.748M250.01 122.33H269.427M250.01 141.748V161.165M250.01 141.748H269.427M250.01 161.165V180.583M250.01 161.165H269.427M250.01 180.583V200M250.01 180.583H269.427M250.01 200V219.417M250.01 200H269.427M250.01 219.417V238.835M250.01 219.417H269.427M250.01 238.835V258.252M250.01 238.835H269.427M250.01 258.252V277.67M250.01 258.252H269.427M250.01 277.67V297.087M250.01 277.67H269.427M250.01 297.087V316.505M250.01 297.087H269.427M250.01 316.505V335.922M250.01 316.505H269.427M250.01 335.922V355.34M250.01 335.922H269.427M250.01 355.34V374.757M250.01 355.34H269.427M250.01 374.757V394.175M250.01 374.757H269.427M250.01 394.175H269.427M269.427 5.8252V25.2427M269.427 5.8252H288.845M269.427 25.2427V44.6602M269.427 25.2427H288.845M269.427 44.6602V64.0776M269.427 44.6602H288.845M269.427 64.0776V83.4951M269.427 64.0776H288.845M269.427 83.4951V102.913M269.427 83.4951H288.845M269.427 102.913V122.33M269.427 102.913H288.845M269.427 122.33V141.748M269.427 122.33H288.845M269.427 141.748V161.165M269.427 141.748H288.845M269.427 161.165V180.583M269.427 161.165H288.845M269.427 180.583V200M269.427 180.583H288.845M269.427 200V219.417M269.427 200H288.845M269.427 219.417V238.835M269.427 219.417H288.845M269.427 238.835V258.252M269.427 238.835H288.845M269.427 258.252V277.67M269.427 258.252H288.845M269.427 277.67V297.087M269.427 277.67H288.845M269.427 297.087V316.505M269.427 297.087H288.845M269.427 316.505V335.922M269.427 316.505H288.845M269.427 335.922V355.34M269.427 335.922H288.845M269.427 355.34V374.757M269.427 355.34H288.845M269.427 374.757V394.175M269.427 374.757H288.845M269.427 394.175H288.845M288.845 5.8252V25.2427M288.845 5.8252H308.262M288.845 25.2427V44.6602M288.845 25.2427H308.262M288.845 44.6602V64.0776M288.845 44.6602H308.262M288.845 64.0776V83.4951M288.845 64.0776H308.262M288.845 83.4951V102.913M288.845 83.4951H308.262M288.845 102.913V122.33M288.845 102.913H308.262M288.845 122.33V141.748M288.845 122.33H308.262M288.845 141.748V161.165M288.845 141.748H308.262M288.845 161.165V180.583M288.845 161.165H308.262M288.845 180.583V200M288.845 180.583H308.262M288.845 200V219.417M288.845 200H308.262M288.845 219.417V238.835M288.845 219.417H308.262M288.845 238.835V258.252M288.845 238.835H308.262M288.845 258.252V277.67M288.845 258.252H308.262M288.845 277.67V297.087M288.845 277.67H308.262M288.845 297.087V316.505M288.845 297.087H308.262M288.845 316.505V335.922M288.845 316.505H308.262M288.845 335.922V355.34M288.845 335.922H308.262M288.845 355.34V374.757M288.845 355.34H308.262M288.845 374.757V394.175M288.845 374.757H308.262M288.845 394.175H308.262M308.262 5.8252V25.2427M308.262 5.8252H327.68M308.262 25.2427V44.6602M308.262 25.2427H327.68M308.262 44.6602V64.0776M308.262 44.6602H327.68M308.262 64.0776V83.4951M308.262 64.0776H327.68M308.262 83.4951V102.913M308.262 83.4951H327.68M308.262 102.913V122.33M308.262 102.913H327.68M308.262 122.33V141.748M308.262 122.33H327.68M308.262 141.748V161.165M308.262 141.748H327.68M308.262 161.165V180.583M308.262 161.165H327.68M308.262 180.583V200M308.262 180.583H327.68M308.262 200V219.417M308.262 200H327.68M308.262 219.417V238.835M308.262 219.417H327.68M308.262 238.835V258.252M308.262 238.835H327.68M308.262 258.252V277.67M308.262 258.252H327.68M308.262 277.67V297.087M308.262 277.67H327.68M308.262 297.087V316.505M308.262 297.087H327.68M308.262 316.505V335.922M308.262 316.505H327.68M308.262 335.922V355.34M308.262 335.922H327.68M308.262 355.34V374.757M308.262 355.34H327.68M308.262 374.757V394.175M308.262 374.757H327.68M308.262 394.175H327.68M327.68 5.8252V25.2427M327.68 5.8252H347.097M327.68 25.2427V44.6602M327.68 25.2427H347.097M327.68 44.6602V64.0776M327.68 44.6602H347.097M327.68 64.0776V83.4951M327.68 64.0776H347.097M327.68 83.4951V102.913M327.68 83.4951H347.097M327.68 102.913V122.33M327.68 102.913H347.097M327.68 122.33V141.748M327.68 122.33H347.097M327.68 141.748V161.165M327.68 141.748H347.097M327.68 161.165V180.583M327.68 161.165H347.097M327.68 180.583V200M327.68 180.583H347.097M327.68 200V219.417M327.68 200H347.097M327.68 219.417V238.835M327.68 219.417H347.097M327.68 238.835V258.252M327.68 238.835H347.097M327.68 258.252V277.67M327.68 258.252H347.097M327.68 277.67V297.087M327.68 277.67H347.097M327.68 297.087V316.505M327.68 297.087H347.097M327.68 316.505V335.922M327.68 316.505H347.097M327.68 335.922V355.34M327.68 335.922H347.097M327.68 355.34V374.757M327.68 355.34H347.097M327.68 374.757V394.175M327.68 374.757H347.097M327.68 394.175H347.097M347.097 5.8252V25.2427M347.097 5.8252H366.515M347.097 25.2427V44.6602M347.097 25.2427H366.515M347.097 44.6602V64.0776M347.097 44.6602H366.515M347.097 64.0776V83.4951M347.097 64.0776H366.515M347.097 83.4951V102.913M347.097 83.4951H366.515M347.097 102.913V122.33M347.097 102.913H366.515M347.097 122.33V141.748M347.097 122.33H366.515M347.097 141.748V161.165M347.097 141.748H366.515M347.097 161.165V180.583M347.097 161.165H366.515M347.097 180.583V200M347.097 180.583H366.515M347.097 200V219.417M347.097 200H366.515M347.097 219.417V238.835M347.097 219.417H366.515M347.097 238.835V258.252M347.097 238.835H366.515M347.097 258.252V277.67M347.097 258.252H366.515M347.097 277.67V297.087M347.097 277.67H366.515M347.097 297.087V316.505M347.097 297.087H366.515M347.097 316.505V335.922M347.097 316.505H366.515M347.097 335.922V355.34M347.097 335.922H366.515M347.097 355.34V374.757M347.097 355.34H366.515M347.097 374.757V394.175M347.097 374.757H366.515M347.097 394.175H366.515M366.515 5.8252V25.2427M366.515 5.8252H385.932M366.515 25.2427V44.6602M366.515 25.2427H385.932M366.515 44.6602V64.0776M366.515 44.6602H385.932M366.515 64.0776V83.4951M366.515 64.0776H385.932M366.515 83.4951V102.913M366.515 83.4951H385.932M366.515 102.913V122.33M366.515 102.913H385.932M366.515 122.33V141.748M366.515 122.33H385.932M366.515 141.748V161.165M366.515 141.748H385.932M366.515 161.165V180.583M366.515 161.165H385.932M366.515 180.583V200M366.515 180.583H385.932M366.515 200V219.417M366.515 200H385.932M366.515 219.417V238.835M366.515 219.417H385.932M366.515 238.835V258.252M366.515 238.835H385.932M366.515 258.252V277.67M366.515 258.252H385.932M366.515 277.67V297.087M366.515 277.67H385.932M366.515 297.087V316.505M366.515 297.087H385.932M366.515 316.505V335.922M366.515 316.505H385.932M366.515 335.922V355.34M366.515 335.922H385.932M366.515 355.34V374.757M366.515 355.34H385.932M366.515 374.757V394.175M366.515 374.757H385.932M366.515 394.175H385.932M385.932 5.8252V25.2427M385.932 5.8252H405.35M385.932 25.2427V44.6602M385.932 25.2427H405.35M385.932 44.6602V64.0776M385.932 44.6602H405.35M385.932 64.0776V83.4951M385.932 64.0776H405.35M385.932 83.4951V102.913M385.932 83.4951H405.35M385.932 102.913V122.33M385.932 102.913H405.35M385.932 122.33V141.748M385.932 122.33H405.35M385.932 141.748V161.165M385.932 141.748H405.35M385.932 161.165V180.583M385.932 161.165H405.35M385.932 180.583V200M385.932 180.583H405.35M385.932 200V219.417M385.932 200H405.35M385.932 219.417V238.835M385.932 219.417H405.35M385.932 238.835V258.252M385.932 238.835H405.35M385.932 258.252V277.67M385.932 258.252H405.35M385.932 277.67V297.087M385.932 277.67H405.35M385.932 297.087V316.505M385.932 297.087H405.35M385.932 316.505V335.922M385.932 316.505H405.35M385.932 335.922V355.34M385.932 335.922H405.35M385.932 355.34V374.757M385.932 355.34H405.35M385.932 374.757V394.175M385.932 374.757H405.35M385.932 394.175H405.35M405.35 5.8252V25.2427M405.35 5.8252H424.767M405.35 25.2427V44.6602M405.35 25.2427H424.767M405.35 44.6602V64.0776M405.35 44.6602H424.767M405.35 64.0776V83.4951M405.35 64.0776H424.767M405.35 83.4951V102.913M405.35 83.4951H424.767M405.35 102.913V122.33M405.35 102.913H424.767M405.35 122.33V141.748M405.35 122.33H424.767M405.35 141.748V161.165M405.35 141.748H424.767M405.35 161.165V180.583M405.35 161.165H424.767M405.35 180.583V200M405.35 180.583H424.767M405.35 200V219.417M405.35 200H424.767M405.35 219.417V238.835M405.35 219.417H424.767M405.35 238.835V258.252M405.35 238.835H424.767M405.35 258.252V277.67M405.35 258.252H424.767M405.35 277.67V297.087M405.35 277.67H424.767M405.35 297.087V316.505M405.35 297.087H424.767M405.35 316.505V335.922M405.35 316.505H424.767M405.35 335.922V355.34M405.35 335.922H424.767M405.35 355.34V374.757M405.35 355.34H424.767M405.35 374.757V394.175M405.35 374.757H424.767M405.35 394.175H424.767M424.767 5.8252V25.2427M424.767 5.8252H444.185M424.767 25.2427V44.6602M424.767 25.2427H444.185M424.767 44.6602V64.0776M424.767 44.6602H444.185M424.767 64.0776V83.4951M424.767 64.0776H444.185M424.767 83.4951V102.913M424.767 83.4951H444.185M424.767 102.913V122.33M424.767 102.913H444.185M424.767 122.33V141.748M424.767 122.33H444.185M424.767 141.748V161.165M424.767 141.748H444.185M424.767 161.165V180.583M424.767 161.165H444.185M424.767 180.583V200M424.767 180.583H444.185M424.767 200V219.417M424.767 200H444.185M424.767 219.417V238.835M424.767 219.417H444.185M424.767 238.835V258.252M424.767 238.835H444.185M424.767 258.252V277.67M424.767 258.252H444.185M424.767 277.67V297.087M424.767 277.67H444.185M424.767 297.087V316.505M424.767 297.087H444.185M424.767 316.505V335.922M424.767 316.505H444.185M424.767 335.922V355.34M424.767 335.922H444.185M424.767 355.34V374.757M424.767 355.34H444.185M424.767 374.757V394.175M424.767 374.757H444.185M424.767 394.175H444.185M444.185 5.8252V25.2427M444.185 5.8252H463.602M444.185 25.2427V44.6602M444.185 25.2427H463.602M444.185 44.6602V64.0776M444.185 44.6602H463.602M444.185 64.0776V83.4951M444.185 64.0776H463.602M444.185 83.4951V102.913M444.185 83.4951H463.602M444.185 102.913V122.33M444.185 102.913H463.602M444.185 122.33V141.748M444.185 122.33H463.602M444.185 141.748V161.165M444.185 141.748H463.602M444.185 161.165V180.583M444.185 161.165H463.602M444.185 180.583V200M444.185 180.583H463.602M444.185 200V219.417M444.185 200H463.602M444.185 219.417V238.835M444.185 219.417H463.602M444.185 238.835V258.252M444.185 238.835H463.602M444.185 258.252V277.67M444.185 258.252H463.602M444.185 277.67V297.087M444.185 277.67H463.602M444.185 297.087V316.505M444.185 297.087H463.602M444.185 316.505V335.922M444.185 316.505H463.602M444.185 335.922V355.34M444.185 335.922H463.602M444.185 355.34V374.757M444.185 355.34H463.602M444.185 374.757V394.175M444.185 374.757H463.602M444.185 394.175H463.602M463.602 5.8252V25.2427M463.602 5.8252H483.02M463.602 25.2427V44.6602M463.602 25.2427H483.02M463.602 44.6602V64.0776M463.602 44.6602H483.02M463.602 64.0776V83.4951M463.602 64.0776H483.02M463.602 83.4951V102.913M463.602 83.4951H483.02M463.602 102.913V122.33M463.602 102.913H483.02M463.602 122.33V141.748M463.602 122.33H483.02M463.602 141.748V161.165M463.602 141.748H483.02M463.602 161.165V180.583M463.602 161.165H483.02M463.602 180.583V200M463.602 180.583H483.02M463.602 200V219.417M463.602 200H483.02M463.602 219.417V238.835M463.602 219.417H483.02M463.602 238.835V258.252M463.602 238.835H483.02M463.602 258.252V277.67M463.602 258.252H483.02M463.602 277.67V297.087M463.602 277.67H483.02M463.602 297.087V316.505M463.602 297.087H483.02M463.602 316.505V335.922M463.602 316.505H483.02M463.602 335.922V355.34M463.602 335.922H483.02M463.602 355.34V374.757M463.602 355.34H483.02M463.602 374.757V394.175M463.602 374.757H483.02M463.602 394.175H483.02M483.02 5.8252V25.2427M483.02 5.8252H502.437M483.02 25.2427V44.6602M483.02 25.2427H502.437M483.02 44.6602V64.0776M483.02 44.6602H502.437M483.02 64.0776V83.4951M483.02 64.0776H502.437M483.02 83.4951V102.913M483.02 83.4951H502.437M483.02 102.913V122.33M483.02 102.913H502.437M483.02 122.33V141.748M483.02 122.33H502.437M483.02 141.748V161.165M483.02 141.748H502.437M483.02 161.165V180.583M483.02 161.165H502.437M483.02 180.583V200M483.02 180.583H502.437M483.02 200V219.417M483.02 200H502.437M483.02 219.417V238.835M483.02 219.417H502.437M483.02 238.835V258.252M483.02 238.835H502.437M483.02 258.252V277.67M483.02 258.252H502.437M483.02 277.67V297.087M483.02 277.67H502.437M483.02 297.087V316.505M483.02 297.087H502.437M483.02 316.505V335.922M483.02 316.505H502.437M483.02 335.922V355.34M483.02 335.922H502.437M483.02 355.34V374.757M483.02 355.34H502.437M483.02 374.757V394.175M483.02 374.757H502.437M483.02 394.175H502.437M502.437 5.8252V25.2427M502.437 5.8252H521.854M502.437 25.2427V44.6602M502.437 25.2427H521.854M502.437 44.6602V64.0776M502.437 44.6602H521.854M502.437 64.0776V83.4951M502.437 64.0776H521.854M502.437 83.4951V102.913M502.437 83.4951H521.854M502.437 102.913V122.33M502.437 102.913H521.854M502.437 122.33V141.748M502.437 122.33H521.854M502.437 141.748V161.165M502.437 141.748H521.854M502.437 161.165V180.583M502.437 161.165H521.854M502.437 180.583V200M502.437 180.583H521.854M502.437 200V219.417M502.437 200H521.854M502.437 219.417V238.835M502.437 219.417H521.854M502.437 238.835V258.252M502.437 238.835H521.854M502.437 258.252V277.67M502.437 258.252H521.854M502.437 277.67V297.087M502.437 277.67H521.854M502.437 297.087V316.505M502.437 297.087H521.854M502.437 316.505V335.922M502.437 316.505H521.854M502.437 335.922V355.34M502.437 335.922H521.854M502.437 355.34V374.757M502.437 355.34H521.854M502.437 374.757V394.175M502.437 374.757H521.854M502.437 394.175H521.854M521.854 5.8252V25.2427M521.854 5.8252H541.272M521.854 25.2427V44.6602M521.854 25.2427H541.272M521.854 44.6602V64.0776M521.854 44.6602H541.272M521.854 64.0776V83.4951M521.854 64.0776H541.272M521.854 83.4951V102.913M521.854 83.4951H541.272M521.854 102.913V122.33M521.854 102.913H541.272M521.854 122.33V141.748M521.854 122.33H541.272M521.854 141.748V161.165M521.854 141.748H541.272M521.854 161.165V180.583M521.854 161.165H541.272M521.854 180.583V200M521.854 180.583H541.272M521.854 200V219.417M521.854 200H541.272M521.854 219.417V238.835M521.854 219.417H541.272M521.854 238.835V258.252M521.854 238.835H541.272M521.854 258.252V277.67M521.854 258.252H541.272M521.854 277.67V297.087M521.854 277.67H541.272M521.854 297.087V316.505M521.854 297.087H541.272M521.854 316.505V335.922M521.854 316.505H541.272M521.854 335.922V355.34M521.854 335.922H541.272M521.854 355.34V374.757M521.854 355.34H541.272M521.854 374.757V394.175M521.854 374.757H541.272M521.854 394.175H541.272M541.272 5.8252V25.2427M541.272 5.8252H560.689M541.272 25.2427V44.6602M541.272 25.2427H560.689M541.272 44.6602V64.0776M541.272 44.6602H560.689M541.272 64.0776V83.4951M541.272 64.0776H560.689M541.272 83.4951V102.913M541.272 83.4951H560.689M541.272 102.913V122.33M541.272 102.913H560.689M541.272 122.33V141.748M541.272 122.33H560.689M541.272 141.748V161.165M541.272 141.748H560.689M541.272 161.165V180.583M541.272 161.165H560.689M541.272 180.583V200M541.272 180.583H560.689M541.272 200V219.417M541.272 200H560.689M541.272 219.417V238.835M541.272 219.417H560.689M541.272 238.835V258.252M541.272 238.835H560.689M541.272 258.252V277.67M541.272 258.252H560.689M541.272 277.67V297.087M541.272 277.67H560.689M541.272 297.087V316.505M541.272 297.087H560.689M541.272 316.505V335.922M541.272 316.505H560.689M541.272 335.922V355.34M541.272 335.922H560.689M541.272 355.34V374.757M541.272 355.34H560.689M541.272 374.757V394.175M541.272 374.757H560.689M541.272 394.175H560.689M560.689 5.8252V25.2427M560.689 5.8252H580.107M560.689 25.2427V44.6602M560.689 25.2427H580.107M560.689 44.6602V64.0776M560.689 44.6602H580.107M560.689 64.0776V83.4951M560.689 64.0776H580.107M560.689 83.4951V102.913M560.689 83.4951H580.107M560.689 102.913V122.33M560.689 102.913H580.107M560.689 122.33V141.748M560.689 122.33H580.107M560.689 141.748V161.165M560.689 141.748H580.107M560.689 161.165V180.583M560.689 161.165H580.107M560.689 180.583V200M560.689 180.583H580.107M560.689 200V219.417M560.689 200H580.107M560.689 219.417V238.835M560.689 219.417H580.107M560.689 238.835V258.252M560.689 238.835H580.107M560.689 258.252V277.67M560.689 258.252H580.107M560.689 277.67V297.087M560.689 277.67H580.107M560.689 297.087V316.505M560.689 297.087H580.107M560.689 316.505V335.922M560.689 316.505H580.107M560.689 335.922V355.34M560.689 335.922H580.107M560.689 355.34V374.757M560.689 355.34H580.107M560.689 374.757V394.175M560.689 374.757H580.107M560.689 394.175H580.107M580.107 5.8252V25.2427M580.107 5.8252H599.524M580.107 25.2427V44.6602M580.107 25.2427H599.524M580.107 44.6602V64.0776M580.107 44.6602H599.524M580.107 64.0776V83.4951M580.107 64.0776H599.524M580.107 83.4951V102.913M580.107 83.4951H599.524M580.107 102.913V122.33M580.107 102.913H599.524M580.107 122.33V141.748M580.107 122.33H599.524M580.107 141.748V161.165M580.107 141.748H599.524M580.107 161.165V180.583M580.107 161.165H599.524M580.107 180.583V200M580.107 180.583H599.524M580.107 200V219.417M580.107 200H599.524M580.107 219.417V238.835M580.107 219.417H599.524M580.107 238.835V258.252M580.107 238.835H599.524M580.107 258.252V277.67M580.107 258.252H599.524M580.107 277.67V297.087M580.107 277.67H599.524M580.107 297.087V316.505M580.107 297.087H599.524M580.107 316.505V335.922M580.107 316.505H599.524M580.107 335.922V355.34M580.107 335.922H599.524M580.107 355.34V374.757M580.107 355.34H599.524M580.107 374.757V394.175M580.107 374.757H599.524M580.107 394.175H599.524M599.524 5.8252V25.2427M599.524 5.8252H618.942M599.524 25.2427V44.6602M599.524 25.2427H618.942M599.524 44.6602V64.0776M599.524 44.6602H618.942M599.524 64.0776V83.4951M599.524 64.0776H618.942M599.524 83.4951V102.913M599.524 83.4951H618.942M599.524 102.913V122.33M599.524 102.913H618.942M599.524 122.33V141.748M599.524 122.33H618.942M599.524 141.748V161.165M599.524 141.748H618.942M599.524 161.165V180.583M599.524 161.165H618.942M599.524 180.583V200M599.524 180.583H618.942M599.524 200V219.417M599.524 200H618.942M599.524 219.417V238.835M599.524 219.417H618.942M599.524 238.835V258.252M599.524 238.835H618.942M599.524 258.252V277.67M599.524 258.252H618.942M599.524 277.67V297.087M599.524 277.67H618.942M599.524 297.087V316.505M599.524 297.087H618.942M599.524 316.505V335.922M599.524 316.505H618.942M599.524 335.922V355.34M599.524 335.922H618.942M599.524 355.34V374.757M599.524 355.34H618.942M599.524 374.757V394.175M599.524 374.757H618.942M599.524 394.175H618.942M618.942 5.8252V25.2427M618.942 5.8252H638.359M618.942 25.2427V44.6602M618.942 25.2427H638.359M618.942 44.6602V64.0776M618.942 44.6602H638.359M618.942 64.0776V83.4951M618.942 64.0776H638.359M618.942 83.4951V102.913M618.942 83.4951H638.359M618.942 102.913V122.33M618.942 102.913H638.359M618.942 122.33V141.748M618.942 122.33H638.359M618.942 141.748V161.165M618.942 141.748H638.359M618.942 161.165V180.583M618.942 161.165H638.359M618.942 180.583V200M618.942 180.583H638.359M618.942 200V219.417M618.942 200H638.359M618.942 219.417V238.835M618.942 219.417H638.359M618.942 238.835V258.252M618.942 238.835H638.359M618.942 258.252V277.67M618.942 258.252H638.359M618.942 277.67V297.087M618.942 277.67H638.359M618.942 297.087V316.505M618.942 297.087H638.359M618.942 316.505V335.922M618.942 316.505H638.359M618.942 335.922V355.34M618.942 335.922H638.359M618.942 355.34V374.757M618.942 355.34H638.359M618.942 374.757V394.175M618.942 374.757H638.359M618.942 394.175H638.359M638.359 5.8252V25.2427M638.359 5.8252H657.777M638.359 25.2427V44.6602M638.359 25.2427H657.777M638.359 44.6602V64.0776M638.359 44.6602H657.777M638.359 64.0776V83.4951M638.359 64.0776H657.777M638.359 83.4951V102.913M638.359 83.4951H657.777M638.359 102.913V122.33M638.359 102.913H657.777M638.359 122.33V141.748M638.359 122.33H657.777M638.359 141.748V161.165M638.359 141.748H657.777M638.359 161.165V180.583M638.359 161.165H657.777M638.359 180.583V200M638.359 180.583H657.777M638.359 200V219.417M638.359 200H657.777M638.359 219.417V238.835M638.359 219.417H657.777M638.359 238.835V258.252M638.359 238.835H657.777M638.359 258.252V277.67M638.359 258.252H657.777M638.359 277.67V297.087M638.359 277.67H657.777M638.359 297.087V316.505M638.359 297.087H657.777M638.359 316.505V335.922M638.359 316.505H657.777M638.359 335.922V355.34M638.359 335.922H657.777M638.359 355.34V374.757M638.359 355.34H657.777M638.359 374.757V394.175M638.359 374.757H657.777M638.359 394.175H657.777M657.777 5.8252V25.2427M657.777 5.8252H677.194V25.2427M657.777 25.2427V44.6602M657.777 25.2427H677.194M657.777 44.6602V64.0776M657.777 44.6602H677.194M657.777 64.0776V83.4951M657.777 64.0776H677.194M657.777 83.4951V102.913M657.777 83.4951H677.194M657.777 102.913V122.33M657.777 102.913H677.194M657.777 122.33V141.748M657.777 122.33H677.194M657.777 141.748V161.165M657.777 141.748H677.194M657.777 161.165V180.583M657.777 161.165H677.194M657.777 180.583V200M657.777 180.583H677.194M657.777 200V219.417M657.777 200H677.194M657.777 219.417V238.835M657.777 219.417H677.194M657.777 238.835V258.252M657.777 238.835H677.194M657.777 258.252V277.67M657.777 258.252H677.194M657.777 277.67V297.087M657.777 277.67H677.194M657.777 297.087V316.505M657.777 297.087H677.194M657.777 316.505V335.922M657.777 316.505H677.194M657.777 335.922V355.34M657.777 335.922H677.194M657.777 355.34V374.757M657.777 355.34H677.194M657.777 374.757V394.175M657.777 374.757H677.194M657.777 394.175H677.194V374.757M677.194 25.2427V44.6602M677.194 44.6602V64.0776M677.194 64.0776V83.4951M677.194 83.4951V102.913M677.194 102.913V122.33M677.194 122.33V141.748M677.194 141.748V161.165M677.194 161.165V180.583M677.194 180.583V200M677.194 200V219.417M677.194 219.417V238.835M677.194 238.835V258.252M677.194 258.252V277.67M677.194 277.67V297.087M677.194 297.087V316.505M677.194 316.505V335.922M677.194 335.922V355.34M677.194 355.34V374.757" stroke="url(#paint0_radial_127_586)" stroke-opacity="0.6" stroke-width="0.805493"/>
</g>
<g style="mix-blend-mode:soft-light" opacity="0.8">
<path d="M-99.5048 77.6699V83.4951M-99.5048 83.4951V89.3204M-99.5048 83.4951H-105.33M-99.5048 83.4951H-93.6796M-99.5048 233.01V238.835M-99.5048 238.835V244.66M-99.5048 238.835H-105.33M-99.5048 238.835H-93.6796M-99.5048 388.349V394.175M-99.5048 394.175V400M-99.5048 394.175H-105.33M-99.5048 394.175H-93.6796M55.835 77.6699V83.4951M55.835 83.4951V89.3204M55.835 83.4951H50.0098M55.835 83.4951H61.6603M55.835 233.01V238.835M55.835 238.835V244.66M55.835 238.835H50.0098M55.835 238.835H61.6603M55.835 388.349V394.175M55.835 394.175V400M55.835 394.175H50.0098M55.835 394.175H61.6603M211.175 77.6699V83.4951M211.175 83.4951V89.3204M211.175 83.4951H205.35M211.175 83.4951H217M211.175 233.01V238.835M211.175 238.835V244.66M211.175 238.835H205.35M211.175 238.835H217M211.175 388.349V394.175M211.175 394.175V400M211.175 394.175H205.35M211.175 394.175H217M366.515 77.6699V83.4951M366.515 83.4951V89.3204M366.515 83.4951H360.689M366.515 83.4951H372.34M366.515 233.01V238.835M366.515 238.835V244.66M366.515 238.835H360.689M366.515 238.835H372.34M366.515 388.349V394.175M366.515 394.175V400M366.515 394.175H360.689M366.515 394.175H372.34M521.854 77.6699V83.4951M521.854 83.4951V89.3204M521.854 83.4951H516.029M521.854 83.4951H527.68M521.854 233.01V238.835M521.854 238.835V244.66M521.854 238.835H516.029M521.854 238.835H527.68M521.854 388.349V394.175M521.854 394.175V400M521.854 394.175H516.029M521.854 394.175H527.68M677.194 77.6699V83.4951M677.194 83.4951V89.3204M677.194 83.4951H671.369M677.194 83.4951H683.02M677.194 233.01V238.835M677.194 238.835V244.66M677.194 238.835H671.369M677.194 238.835H683.02M677.194 388.349V394.175M677.194 394.175V400M677.194 394.175H671.369M677.194 394.175H683.02M-99.5048 0V5.82524M-99.5048 5.82524V11.6505M-99.5048 5.82524H-105.33M-99.5048 5.82524H-93.6796M-99.5048 155.34V161.165M-99.5048 161.165V166.99M-99.5048 161.165H-105.33M-99.5048 161.165H-93.6796M-99.5048 310.68V316.505M-99.5048 316.505V322.33M-99.5048 316.505H-105.33M-99.5048 316.505H-93.6796M55.835 0V5.82524M55.835 5.82524V11.6505M55.835 5.82524H50.0098M55.835 5.82524H61.6603M55.835 155.34V161.165M55.835 161.165V166.99M55.835 161.165H50.0098M55.835 161.165H61.6603M55.835 310.68V316.505M55.835 316.505V322.33M55.835 316.505H50.0098M55.835 316.505H61.6603M211.175 0V5.82524M211.175 5.82524V11.6505M211.175 5.82524H205.35M211.175 5.82524H217M211.175 155.34V161.165M211.175 161.165V166.99M211.175 161.165H205.35M211.175 161.165H217M211.175 310.68V316.505M211.175 316.505V322.33M211.175 316.505H205.35M211.175 316.505H217M366.515 0V5.82524M366.515 5.82524V11.6505M366.515 5.82524H360.689M366.515 5.82524H372.34M366.515 155.34V161.165M366.515 161.165V166.99M366.515 161.165H360.689M366.515 161.165H372.34M366.515 310.68V316.505M366.515 316.505V322.33M366.515 316.505H360.689M366.515 316.505H372.34M521.854 0V5.82524M521.854 5.82524V11.6505M521.854 5.82524H516.029M521.854 5.82524H527.68M521.854 155.34V161.165M521.854 161.165V166.99M521.854 161.165H516.029M521.854 161.165H527.68M521.854 310.68V316.505M521.854 316.505V322.33M521.854 316.505H516.029M521.854 316.505H527.68M677.194 0V5.82524M677.194 5.82524V11.6505M677.194 5.82524H671.369M677.194 5.82524H683.02M677.194 155.34V161.165M677.194 161.165V166.99M677.194 161.165H671.369M677.194 161.165H683.02M677.194 310.68V316.505M677.194 316.505V322.33M677.194 316.505H671.369M677.194 316.505H683.02M-177.175 77.6699V83.4951M-177.175 83.4951V89.3204M-177.175 83.4951H-183M-177.175 83.4951H-171.35M-177.175 233.01V238.835M-177.175 238.835V244.66M-177.175 238.835H-183M-177.175 238.835H-171.35M-177.175 388.349V394.175M-177.175 394.175V400M-177.175 394.175H-183M-177.175 394.175H-171.35M-21.8349 77.6699V83.4951M-21.8349 83.4951V89.3204M-21.8349 83.4951H-27.6601M-21.8349 83.4951H-16.0096M-21.8349 233.01V238.835M-21.8349 238.835V244.66M-21.8349 238.835H-27.6601M-21.8349 238.835H-16.0096M-21.8349 388.349V394.175M-21.8349 394.175V400M-21.8349 394.175H-27.6601M-21.8349 394.175H-16.0096M133.505 77.6699V83.4951M133.505 83.4951V89.3204M133.505 83.4951H127.68M133.505 83.4951H139.33M133.505 233.01V238.835M133.505 238.835V244.66M133.505 238.835H127.68M133.505 238.835H139.33M133.505 388.349V394.175M133.505 394.175V400M133.505 394.175H127.68M133.505 394.175H139.33M288.845 77.6699V83.4951M288.845 83.4951V89.3204M288.845 83.4951H283.02M288.845 83.4951H294.67M288.845 233.01V238.835M288.845 238.835V244.66M288.845 238.835H283.02M288.845 238.835H294.67M288.845 388.349V394.175M288.845 394.175V400M288.845 394.175H283.02M288.845 394.175H294.67M444.185 77.6699V83.4951M444.185 83.4951V89.3204M444.185 83.4951H438.359M444.185 83.4951H450.01M444.185 233.01V238.835M444.185 238.835V244.66M444.185 238.835H438.359M444.185 238.835H450.01M444.185 388.349V394.175M444.185 394.175V400M444.185 394.175H438.359M444.185 394.175H450.01M599.524 77.6699V83.4951M599.524 83.4951V89.3204M599.524 83.4951H593.699M599.524 83.4951H605.35M599.524 233.01V238.835M599.524 238.835V244.66M599.524 238.835H593.699M599.524 238.835H605.35M599.524 388.349V394.175M599.524 394.175V400M599.524 394.175H593.699M599.524 394.175H605.35M-177.175 2.8637e-05V5.82527M-177.175 5.82527V11.6505M-177.175 5.82527H-183M-177.175 5.82527H-171.35M-177.175 155.34V161.165M-177.175 161.165V166.99M-177.175 161.165H-183M-177.175 161.165H-171.35M-177.175 310.68V316.505M-177.175 316.505V322.33M-177.175 316.505H-183M-177.175 316.505H-171.35M-21.8349 0V5.82524M-21.8349 5.82524V11.6505M-21.8349 5.82524H-27.6601M-21.8349 5.82524H-16.0096M-21.8349 155.34V161.165M-21.8349 161.165V166.99M-21.8349 161.165H-27.6601M-21.8349 161.165H-16.0096M-21.8349 310.68V316.505M-21.8349 316.505V322.33M-21.8349 316.505H-27.6601M-21.8349 316.505H-16.0096M133.505 0V5.82524M133.505 5.82524V11.6505M133.505 5.82524H127.68M133.505 5.82524H139.33M133.505 155.34V161.165M133.505 161.165V166.99M133.505 161.165H127.68M133.505 161.165H139.33M133.505 310.68V316.505M133.505 316.505V322.33M133.505 316.505H127.68M133.505 316.505H139.33M288.845 0V5.82524M288.845 5.82524V11.6505M288.845 5.82524H283.02M288.845 5.82524H294.67M288.845 155.34V161.165M288.845 161.165V166.99M288.845 161.165H283.02M288.845 161.165H294.67M288.845 310.68V316.505M288.845 316.505V322.33M288.845 316.505H283.02M288.845 316.505H294.67M444.185 0V5.82524M444.185 5.82524V11.6505M444.185 5.82524H438.359M444.185 5.82524H450.01M444.185 155.34V161.165M444.185 161.165V166.99M444.185 161.165H438.359M444.185 161.165H450.01M444.185 310.68V316.505M444.185 316.505V322.33M444.185 316.505H438.359M444.185 316.505H450.01M599.524 0V5.82524M599.524 5.82524V11.6505M599.524 5.82524H593.699M599.524 5.82524H605.35M599.524 155.34V161.165M599.524 161.165V166.99M599.524 161.165H593.699M599.524 161.165H605.35M599.524 310.68V316.505M599.524 316.505V322.33M599.524 316.505H593.699M599.524 316.505H605.35" stroke="url(#paint1_radial_127_586)" stroke-opacity="0.6" stroke-width="1.61099"/>
</g>
<defs>
<radialGradient id="paint0_radial_127_586" cx="0" cy="0" r="1" gradientUnits="userSpaceOnUse" gradientTransform="translate(250.01 200) rotate(90) scale(194.175 427.185)">
<stop stop-color="#211E55"/>
<stop offset="1" stop-color="white" stop-opacity="0"/>
</radialGradient>
<radialGradient id="paint1_radial_127_586" cx="0" cy="0" r="1" gradientUnits="userSpaceOnUse" gradientTransform="translate(250.01 200) rotate(90) scale(200 433.01)">
<stop stop-color="#211E55"/>
<stop offset="1" stop-color="white" stop-opacity="0"/>
</radialGradient>
</defs>
</svg>
