<svg width="320" height="320" viewBox="0 0 320 320" fill="none" xmlns="http://www.w3.org/2000/svg">
<mask id="mask0_53_2" style="mask-type:alpha" maskUnits="userSpaceOnUse" x="18" y="0" width="284" height="320">
<path d="M301.916 90.7725C292.795 90.7725 283.763 92.5691 275.336 96.0596C266.909 99.5501 259.252 104.667 252.802 111.116C246.352 117.566 241.236 125.223 237.745 133.65C234.255 142.077 232.458 151.109 232.458 160.23C232.458 169.352 234.255 178.384 237.745 186.811C241.236 195.237 246.352 202.895 252.802 209.345C259.251 215.794 266.909 220.911 275.336 224.401C283.763 227.892 292.795 229.688 301.916 229.688V319.688C280.976 319.688 260.241 315.564 240.895 307.551C221.548 299.537 203.969 287.791 189.162 272.984C177.395 261.217 167.564 247.698 160 232.934C152.436 247.698 142.605 261.217 130.838 272.984C116.031 287.791 98.4517 299.537 79.1055 307.551C59.7593 315.564 39.0241 319.688 18.084 319.688V229.688C27.2052 229.688 36.2372 227.892 44.6641 224.401C53.091 220.911 60.7485 215.794 67.1982 209.345C73.6479 202.895 78.7643 195.237 82.2549 186.811C85.7453 178.384 87.542 169.352 87.542 160.23C87.5419 151.109 85.7453 142.077 82.2549 133.65C78.7643 125.223 73.6479 117.566 67.1982 111.116C60.7485 104.667 53.091 99.5501 44.6641 96.0596C36.2372 92.5691 27.2052 90.7725 18.084 90.7725V0.772461C39.0241 0.772472 59.7593 4.89681 79.1055 12.9102C98.4517 20.9236 116.031 32.6696 130.838 47.4766C142.605 59.2437 152.436 72.7632 160 87.5273C167.564 72.7632 177.395 59.2437 189.162 47.4766C203.969 32.6696 221.548 20.9236 240.895 12.9102C260.241 4.89681 280.976 0.772473 301.916 0.772461V90.7725Z" fill="white"/>
</mask>
<g mask="url(#mask0_53_2)">
<rect x="18.083" y="-3.35223" width="283.832" height="327.499" fill="#080808"/>
</g>
</svg>
